<svg width="60" height="60" viewBox="0 0 60 60" fill="none" xmlns="http://www.w3.org/2000/svg">
<path d="M40.9754 2.14957C40.8884 2.06252 40.785 1.99346 40.6713 1.94635C40.5575 1.89924 40.4356 1.875 40.3125 1.875H14.0625C12.3226 1.87699 10.6546 2.56903 9.4243 3.7993C8.19403 5.02958 7.50199 6.69763 7.5 8.4375V51.5625C7.50199 53.3024 8.19403 54.9704 9.4243 56.2007C10.6546 57.431 12.3226 58.123 14.0625 58.125H45.9375C47.6774 58.123 49.3454 57.431 50.5757 56.2007C51.806 54.9704 52.498 53.3024 52.5 51.5625V14.0625C52.5 13.9394 52.4758 13.8175 52.4286 13.7037C52.3815 13.59 52.3125 13.4866 52.2254 13.3996L40.9754 2.14957ZM41.25 5.07574L49.2993 13.125H45.9375C44.6947 13.1236 43.5033 12.6293 42.6245 11.7505C41.7457 10.8717 41.2514 9.68027 41.25 8.4375V5.07574ZM14.0625 3.75H39.375V8.4375C39.377 10.1774 40.069 11.8454 41.2993 13.0757C42.5296 14.306 44.1976 14.998 45.9375 15H50.625V41.25H9.375V8.4375C9.3764 7.19473 9.8707 6.00325 10.7495 5.12448C11.6283 4.2457 12.8197 3.7514 14.0625 3.75ZM45.9375 56.25H14.0625C12.8197 56.2486 11.6283 55.7543 10.7495 54.8755C9.8707 53.9967 9.3764 52.8053 9.375 51.5625V43.125H50.625V51.5625C50.6236 52.8053 50.1293 53.9967 49.2505 54.8755C48.3717 55.7543 47.1803 56.2486 45.9375 56.25Z" fill="black"/>
<path d="M27.036 52.3453C27.0024 52.3789 26.9319 52.4326 26.8245 52.5065C26.717 52.5736 26.5727 52.6441 26.3914 52.718C26.2168 52.7918 26.0019 52.8556 25.7468 52.9094C25.4983 52.9698 25.2129 53 24.8906 53C24.4676 53 24.0782 52.9261 23.7223 52.7784C23.3731 52.6307 23.0676 52.4125 22.8058 52.1237C22.5506 51.8283 22.3525 51.4657 22.2115 51.036C22.0705 50.5995 22 50.0959 22 49.5252C22 48.9209 22.0806 48.4005 22.2417 47.964C22.4096 47.5209 22.6278 47.1549 22.8964 46.8662C23.165 46.5707 23.4705 46.3525 23.8129 46.2115C24.1621 46.0705 24.518 46 24.8806 46C25.176 46 25.4379 46.0302 25.6662 46.0906C25.9012 46.1444 26.1094 46.2249 26.2906 46.3324C26.4719 46.4331 26.6297 46.5573 26.764 46.705C26.8983 46.8528 27.0158 47.0139 27.1165 47.1885L26.1698 47.9842C26.1362 47.9237 26.0859 47.8499 26.0187 47.7626C25.9583 47.6686 25.8743 47.5813 25.7669 47.5007C25.6662 47.4134 25.542 47.3396 25.3942 47.2791C25.2532 47.2187 25.0887 47.1885 24.9007 47.1885C24.6859 47.1885 24.4811 47.2355 24.2863 47.3295C24.0983 47.4168 23.9305 47.5578 23.7827 47.7525C23.635 47.9405 23.5175 48.1823 23.4302 48.4777C23.3496 48.7664 23.3094 49.1156 23.3094 49.5252C23.3094 50.2571 23.4671 50.8211 23.7827 51.2173C24.0983 51.6067 24.518 51.8014 25.0417 51.8014C25.4245 51.8014 25.7535 51.7376 26.0288 51.6101C26.3041 51.4758 26.5022 51.3482 26.623 51.2273L27.036 52.3453Z" fill="black"/>
<path d="M32.2159 51.0259C32.2159 51.3549 32.1487 51.6436 32.0144 51.8921C31.8801 52.1405 31.7022 52.3487 31.4806 52.5165C31.2657 52.6777 31.0207 52.7986 30.7454 52.8791C30.4701 52.9597 30.1914 53 29.9094 53C29.6005 53 29.3185 52.9731 29.0633 52.9194C28.8149 52.8657 28.5933 52.8053 28.3986 52.7381C28.2039 52.6643 28.0394 52.5904 27.9051 52.5165C27.7775 52.4427 27.6835 52.3823 27.6231 52.3353L28.1669 51.2173C28.2274 51.271 28.3113 51.3348 28.4187 51.4086C28.5262 51.4825 28.6504 51.553 28.7914 51.6201C28.9391 51.6873 29.1036 51.7444 29.2849 51.7914C29.4729 51.8317 29.6777 51.8518 29.8993 51.8518C30.2216 51.8518 30.4734 51.7813 30.6547 51.6403C30.8427 51.4993 30.9367 51.3113 30.9367 51.0763C30.9367 50.9353 30.9199 50.8144 30.8864 50.7137C30.8528 50.6062 30.7823 50.5089 30.6749 50.4216C30.5741 50.3276 30.4264 50.2403 30.2317 50.1597C30.0437 50.0724 29.7919 49.9751 29.4763 49.8676C29.1876 49.7736 28.9324 49.6695 28.7108 49.5554C28.4892 49.4412 28.3012 49.307 28.1468 49.1525C27.9991 48.9981 27.8849 48.8168 27.8043 48.6086C27.7305 48.4005 27.6936 48.1554 27.6936 47.8734C27.6936 47.6048 27.7406 47.3564 27.8346 47.1281C27.9286 46.8998 28.0696 46.7017 28.2576 46.5338C28.4456 46.3659 28.6806 46.235 28.9626 46.141C29.2446 46.047 29.5703 46 29.9396 46C30.2485 46 30.5238 46.0302 30.7655 46.0906C31.0139 46.1511 31.2288 46.2283 31.4101 46.3223C31.5914 46.4096 31.7425 46.507 31.8633 46.6144C31.9909 46.7218 32.095 46.8225 32.1756 46.9165L31.5008 47.8129C31.4336 47.7324 31.343 47.6518 31.2288 47.5712C31.1214 47.4906 30.9972 47.4168 30.8561 47.3496C30.7151 47.2825 30.5607 47.2288 30.3928 47.1885C30.2317 47.1415 30.0638 47.118 29.8892 47.118C29.5401 47.118 29.295 47.1885 29.154 47.3295C29.013 47.4638 28.9425 47.6283 28.9425 47.823C28.9425 47.9439 28.9626 48.048 29.0029 48.1353C29.0432 48.2158 29.1103 48.293 29.2043 48.3669C29.3051 48.4408 29.436 48.5146 29.5972 48.5885C29.765 48.6556 29.9765 48.7362 30.2317 48.8302C30.5808 48.9578 30.8796 49.0887 31.1281 49.223C31.3832 49.3506 31.5914 49.4983 31.7526 49.6662C31.9137 49.8341 32.0312 50.0288 32.1051 50.2504C32.1789 50.4652 32.2159 50.7237 32.2159 51.0259Z" fill="black"/>
<path d="M35.051 52.859L32.5733 46.141H33.9531L35.6553 51.2273L37.3272 46.141H38.5963L36.2495 52.859H35.051Z" fill="black"/>
<path d="M15.9375 35.625H44.0625C44.3111 35.625 44.5496 35.5262 44.7254 35.3504C44.9012 35.1746 45 34.9361 45 34.6875V17.8125C45 17.5639 44.9012 17.3254 44.7254 17.1496C44.5496 16.9738 44.3111 16.875 44.0625 16.875H15.9375C15.6889 16.875 15.4504 16.9738 15.2746 17.1496C15.0988 17.3254 15 17.5639 15 17.8125V34.6875C15 34.9361 15.0988 35.1746 15.2746 35.3504C15.4504 35.5262 15.6889 35.625 15.9375 35.625ZM16.875 30H24.375V33.75H16.875V30ZM33.75 24.375V28.125H26.25V24.375H33.75ZM26.25 22.5V18.75H33.75V22.5H26.25ZM35.625 24.375H43.125V28.125H35.625V24.375ZM33.75 30V33.75H26.25V30H33.75ZM24.375 28.125H16.875V24.375H24.375V28.125ZM35.625 33.75V30H43.125V33.75H35.625ZM43.125 22.5H35.625V18.75H43.125V22.5ZM24.375 18.75V22.5H16.875V18.75H24.375Z" fill="black"/>
</svg>
