<svg width="24" height="24" viewBox="0 0 24 24" fill="none" xmlns="http://www.w3.org/2000/svg">
<path d="M12 16.3125V10.5H11" stroke="#111111" stroke-linecap="round" stroke-linejoin="round"/>
<path d="M11 16.5H13" stroke="#111111" stroke-linecap="round" stroke-linejoin="round"/>
<path d="M12 21.5C17.2467 21.5 21.5 17.2467 21.5 12C21.5 6.75329 17.2467 2.5 12 2.5C6.75329 2.5 2.5 6.75329 2.5 12C2.5 17.2467 6.75329 21.5 12 21.5Z" stroke="#111111" stroke-linecap="round" stroke-linejoin="round"/>
<path d="M11.75 7.875C11.8881 7.875 12 7.76307 12 7.625C12 7.48693 11.8881 7.375 11.75 7.375C11.6119 7.375 11.5 7.48693 11.5 7.625C11.5 7.76307 11.6119 7.875 11.75 7.875Z" stroke="#111111" stroke-linecap="round" stroke-linejoin="round"/>
<path d="M11.75 7.75C11.819 7.75 11.875 7.69404 11.875 7.625C11.875 7.55596 11.819 7.5 11.75 7.5C11.681 7.5 11.625 7.55596 11.625 7.625C11.625 7.69404 11.681 7.75 11.75 7.75Z" stroke="#111111" stroke-linecap="round" stroke-linejoin="round"/>
</svg>
